<svg width="412" height="260" viewBox="0 0 412 260" fill="none" xmlns="http://www.w3.org/2000/svg">
<ellipse cx="71.9038" cy="181.981" rx="71.1649" ry="77.3008" transform="rotate(0.550137 71.9038 181.981)" fill="#F6A716"/>
<path d="M92.1238 4.52532C92.9501 4.91033 93.6024 6.14866 94.9541 9.65641C96.9859 15.0118 96.2489 14.7166 103.577 13.0204C109.727 11.6128 120.095 11.234 126.307 12.1249C140.577 14.2452 153.02 20.1591 164.244 30.1675C168.813 34.2331 174.713 41.3376 178.074 46.9142L180.286 50.6175L180.204 60.0144C180.033 70.2606 179.789 71.4459 177.443 73.1967C176.784 73.6964 169.628 76.3709 161.582 79.1331C145.996 84.5403 145.15 84.6728 142.767 82.8089C142.149 82.3205 140.662 80.5097 139.389 78.736L137.158 75.5502L137.049 79.6881C136.879 85.2848 136.113 87.1514 133.289 88.6891C132.082 89.3077 128.989 90.529 126.389 91.399C122.994 92.5401 121.703 93.1625 121.726 93.6781C121.743 94.053 122.968 98.5059 124.475 103.556L127.147 112.687L124.259 112.818L121.371 112.95L120.812 110.956C119.143 105.162 116.131 95.1073 116.039 94.9706C115.995 94.9257 113.185 95.8522 109.834 97.0382C101.334 100.103 100.215 99.8251 96.1418 93.5766C94.1298 90.5216 94.1298 90.5216 93.9369 91.8924C93.8034 92.6969 93.755 94.4369 93.7745 95.798C93.8365 97.1572 93.6225 98.9986 93.3212 99.8577C92.3112 102.91 91.0223 103.579 75.6035 108.932C60.3078 114.185 58.9594 114.481 56.4147 112.812C55.7562 112.373 52.903 108.605 50.1601 104.456L45.1353 96.9356L45.1976 91.7666C45.313 79.3624 47.2724 69.1285 51.591 58.3644C53.8852 52.6709 58.0879 44.9647 59.2919 44.2993C60.7443 43.4816 62.522 44.199 63.1044 45.7692C63.64 47.2477 63.7164 47.0564 60.3754 53.1264C56.1662 60.6919 52.7245 71.0873 51.5441 79.7358C50.9697 83.9419 50.5025 91.4308 50.8127 91.6984C50.9019 91.7883 55.098 90.4698 60.084 88.7395C65.1124 87.0073 73.3262 84.1906 78.3546 82.4584C83.3852 80.7731 87.6131 79.2183 87.7341 79.0719C87.8552 78.9255 87.6486 77.1972 87.3019 75.1935C85.2193 63.1244 84.0814 41.9009 85.0214 31.7135C85.2861 29.1183 85.4787 26.8082 85.4702 26.6207C85.4167 25.449 76.5012 32.4777 71.9069 37.1959C69.4271 39.7511 66.7617 39.1682 66.6163 35.9812C66.5437 34.3876 67.5521 33.1675 72.7921 28.6078C77.2529 24.6941 81.8775 21.5714 86.9949 18.9897C89.4496 17.7506 91.5263 16.6227 91.6069 16.5251C91.7301 16.4256 91.0414 14.3905 90.1254 12.037C89.2073 9.63665 88.4251 7.41797 88.408 7.04303C88.376 6.34 90.1422 4.00512 90.6944 3.97994C90.8643 3.9722 91.5142 4.22435 92.1238 4.52532ZM108.485 17.9629C108.489 18.0566 109.347 19.1447 110.424 20.3636C113.745 24.1104 120.267 32.7364 123.057 36.977C126.08 41.6766 131.902 52.6828 134.151 58.1222C135.009 60.1496 135.857 61.9426 135.993 62.1242C136.171 62.3039 140.537 60.9777 145.691 59.1928C150.887 57.406 159.186 54.5854 164.134 52.9508C169.079 51.2694 173.186 49.861 173.267 49.7634C173.711 49.2266 167.881 41.79 163.418 37.25C152.127 25.7887 137.856 18.9719 121.868 17.4466C119.986 17.2506 108.472 17.6817 108.485 17.9629ZM95.3631 21.4261C93.4392 22.1713 91.6895 23.0026 91.4453 23.2485C90.2649 24.4295 89.9029 43.561 90.7815 56.2956C91.4617 65.6107 92.8451 76.3497 93.4251 76.9338C93.6035 77.1135 130.156 64.7856 130.521 64.3933C130.805 64.0985 127.441 56.5965 124.454 50.8151C119.32 40.9046 111.888 30.0657 105.262 22.9003C101.542 18.7961 101.842 18.8294 95.3631 21.4261ZM170.867 56.8707C169.069 57.5633 161.318 60.265 153.733 62.8652C146.105 65.4673 139.741 67.777 139.579 67.9723C139.214 68.3646 145.444 78.0373 146.038 78.0102C146.208 78.0024 152.664 75.8294 160.376 73.2234L174.415 68.4034L174.713 63.7402C175.047 57.9952 175.021 55.5541 174.554 55.5755C174.341 55.5851 172.708 56.1762 170.867 56.8707ZM113.632 76.7169C104.119 79.9686 96.2874 82.7679 96.1643 82.8674C95.9647 83.1583 102.184 92.5966 102.746 92.8058C103.18 92.9739 130.254 83.7552 130.995 83.2048C131.201 83.0545 131.398 80.8381 131.41 78.3015C131.467 75.8097 131.511 73.0367 131.6 72.1873C131.648 71.3867 131.531 70.6875 131.319 70.6972C131.107 70.7069 123.143 73.4183 113.632 76.7169ZM68.5459 92.2988C59.9584 95.3204 52.834 97.7587 52.7066 97.7645C52.3668 97.78 59.106 107.429 59.6264 107.641C60.1022 107.807 87.7227 98.4222 88.0857 97.983C88.1642 97.8385 88.2462 94.9699 88.2601 91.5407L88.2754 85.3406L86.2241 86.0916C85.0944 86.5189 77.1355 89.324 68.5459 92.2988Z" fill="#2A69A9"/>
<path d="M172 168.744C172 168.744 188.497 163.5 196.5 168.744C205.746 174.803 205 195.744 205 195.744H104L68 139.744C68 139.744 76.218 131.687 83 130.244C100.962 126.422 110 168.744 110 168.744H160.5" stroke="#2A69A9" stroke-width="4"/>
<path d="M109 196L97.5 221.744H87L97.5 184" stroke="#2A69A9" stroke-width="4"/>
<path d="M123 109.506L142 167" stroke="#2A69A9" stroke-width="5"/>
<path d="M183 196.244L195.5 225.744L206 217.244L195.5 196.244" stroke="#2A69A9" stroke-width="4"/>
<line x1="70" y1="226.5" x2="412" y2="226.5" stroke="#2A69A9" stroke-width="5"/>
<path d="M152.35 198.146L164 224" stroke="#2A69A9" stroke-width="5"/>
<path d="M227.636 192.954C227.653 192.642 227.87 192.373 228.286 192.148C228.719 191.905 229.144 191.784 229.56 191.784C230.097 191.784 230.357 191.983 230.34 192.382C230.045 197.669 229.491 202.409 228.676 206.604C228.503 207.419 228.338 208.077 228.182 208.58C228.026 209.065 227.783 209.533 227.454 209.984C227.125 210.435 226.683 210.816 226.128 211.128C225.209 211.648 224.204 211.977 223.112 212.116C222.02 212.237 220.711 212.289 219.186 212.272H218.484C217.461 212.272 216.673 212.159 216.118 211.934C215.563 211.709 215.286 211.206 215.286 210.426C215.286 210.253 215.295 210.114 215.312 210.01C215.468 208.918 215.797 207.401 216.3 205.46L216.612 204.186C217.253 201.603 217.817 199.411 218.302 197.608C218.805 195.805 219.359 194.037 219.966 192.304C220.053 192.044 220.287 191.827 220.668 191.654C221.049 191.463 221.422 191.368 221.786 191.368C222.029 191.368 222.228 191.42 222.384 191.524C222.54 191.611 222.618 191.749 222.618 191.94C222.618 191.992 222.601 192.087 222.566 192.226C221.821 194.531 220.919 197.721 219.862 201.794C219.29 204.047 218.874 205.807 218.614 207.072C218.423 207.904 218.276 208.597 218.172 209.152C218.137 209.395 218.12 209.542 218.12 209.594C218.12 209.889 218.215 210.079 218.406 210.166C218.597 210.253 218.943 210.305 219.446 210.322L220.07 210.348C220.642 210.4 221.275 210.426 221.968 210.426C223.701 210.426 224.811 210.088 225.296 209.412C225.591 208.996 225.799 208.459 225.92 207.8C226.059 207.141 226.171 206.353 226.258 205.434L226.388 204.316C226.977 200.555 227.393 196.767 227.636 192.954ZM238.01 195.84C238.513 195.632 238.972 195.528 239.388 195.528C239.839 195.528 240.203 195.649 240.48 195.892C240.758 196.117 240.896 196.49 240.896 197.01C240.896 197.513 240.818 198.059 240.662 198.648C240.506 199.237 240.29 199.931 240.012 200.728L239.648 201.82C239.544 202.149 239.276 202.427 238.842 202.652C238.409 202.877 237.993 202.99 237.594 202.99C237.334 202.99 237.135 202.938 236.996 202.834C236.875 202.713 236.849 202.539 236.918 202.314C237.23 201.343 237.542 200.269 237.854 199.09C237.924 198.553 237.976 198.197 238.01 198.024L237.906 198.128C236.572 199.272 235.35 200.711 234.24 202.444C233.738 205.2 233.426 207.965 233.304 210.738C233.287 211.067 233.062 211.362 232.628 211.622C232.212 211.865 231.779 211.986 231.328 211.986C231.068 211.986 230.852 211.925 230.678 211.804C230.505 211.683 230.427 211.501 230.444 211.258C230.583 208.762 230.852 206.335 231.25 203.978C231.077 203.857 230.99 203.718 230.99 203.562C230.99 203.458 231.025 203.345 231.094 203.224L231.484 202.574C231.866 200.581 232.334 198.579 232.888 196.568C232.975 196.256 233.244 195.987 233.694 195.762C234.162 195.519 234.604 195.398 235.02 195.398C235.28 195.398 235.48 195.45 235.618 195.554C235.757 195.658 235.792 195.814 235.722 196.022C235.445 196.993 235.272 197.634 235.202 197.946C236.242 196.906 237.178 196.204 238.01 195.84ZM243.123 191.212C243.158 190.883 243.383 190.605 243.799 190.38C244.232 190.137 244.657 190.016 245.073 190.016C245.333 190.016 245.532 190.068 245.671 190.172C245.81 190.276 245.87 190.441 245.853 190.666C245.35 195.19 244.83 199.714 244.293 204.238L243.513 211.024C243.478 211.353 243.244 211.639 242.811 211.882C242.378 212.125 241.944 212.246 241.511 212.246C240.922 212.246 240.653 212.021 240.705 211.57L241.927 201.378C242.482 196.594 242.88 193.205 243.123 191.212ZM248.483 208.164C248.448 208.372 248.431 208.519 248.431 208.606C248.431 209.299 248.769 209.646 249.445 209.646C249.844 209.646 250.329 209.533 250.901 209.308C251.421 209.1 252.383 208.658 253.787 207.982C253.822 207.549 253.856 207.133 253.891 206.734C253.943 206.318 253.986 205.945 254.021 205.616L254.203 203.822C253.007 204.394 252.114 204.845 251.525 205.174C250.658 205.677 249.965 206.153 249.445 206.604C248.925 207.037 248.604 207.557 248.483 208.164ZM255.243 195.918C256.023 195.918 256.543 196.117 256.803 196.516C257.08 196.897 257.219 197.461 257.219 198.206L257.193 198.934C257.124 200.199 256.968 202.054 256.725 204.498C256.673 204.845 256.612 205.425 256.543 206.24C256.474 206.743 256.413 207.15 256.361 207.462C256.552 207.566 256.647 207.705 256.647 207.878C256.647 207.999 256.586 208.181 256.465 208.424L256.361 208.554L256.205 208.71C256.084 209.594 256.023 210.348 256.023 210.972C256.266 211.111 256.387 211.275 256.387 211.466C256.387 211.761 256.17 212.073 255.737 212.402C255.616 212.489 255.477 212.575 255.321 212.662C255.2 212.731 255.026 212.792 254.801 212.844C254.593 212.896 254.385 212.922 254.177 212.922C253.536 212.922 253.241 212.688 253.293 212.22L253.501 210.036C251.178 211.145 249.393 211.7 248.145 211.7C246.568 211.7 245.779 210.851 245.779 209.152C245.779 207.523 246.62 206.136 248.301 204.992C250 203.848 252.028 202.817 254.385 201.898C254.454 201.222 254.506 200.537 254.541 199.844C254.541 199.705 254.55 199.532 254.567 199.324C254.584 199.116 254.593 198.882 254.593 198.622C254.593 198.293 254.567 198.076 254.515 197.972L254.437 197.868H254.411C254.151 197.868 253.666 198.223 252.955 198.934C252.314 199.558 251.516 200.494 250.563 201.742C250.424 201.933 250.19 202.089 249.861 202.21C249.549 202.331 249.228 202.392 248.899 202.392C248.656 202.392 248.448 202.349 248.275 202.262C248.119 202.175 248.041 202.045 248.041 201.872C248.041 201.733 248.11 201.551 248.249 201.326C250.641 197.721 252.972 195.918 255.243 195.918ZM269.665 197.504C269.787 197.296 270.081 197.079 270.549 196.854C271.035 196.611 271.459 196.49 271.823 196.49C272.343 196.49 272.569 196.733 272.499 197.218C272.499 197.27 272.491 197.348 272.473 197.452C272.456 197.556 272.439 197.634 272.421 197.686V197.738C272.248 198.899 272.049 200.295 271.823 201.924C271.615 203.536 271.451 204.801 271.329 205.72L270.653 210.712C270.601 211.059 270.35 211.353 269.899 211.596C269.466 211.839 269.024 211.96 268.573 211.96C268.296 211.96 268.071 211.899 267.897 211.778C267.741 211.657 267.681 211.483 267.715 211.258C267.906 209.767 268.209 207.531 268.625 204.55L268.365 204.992C267.915 205.755 267.577 206.309 267.351 206.656C266.571 207.869 265.739 208.892 264.855 209.724C263.989 210.556 262.992 211.111 261.865 211.388C261.432 211.492 261.042 211.544 260.695 211.544C259.066 211.544 258.251 210.435 258.251 208.216C258.251 207.176 258.416 205.997 258.745 204.68C259.075 203.345 259.447 202.097 259.863 200.936C260.297 199.775 260.669 198.891 260.981 198.284C261.103 198.041 261.371 197.833 261.787 197.66C262.221 197.469 262.637 197.374 263.035 197.374C263.278 197.374 263.469 197.417 263.607 197.504C263.763 197.591 263.841 197.712 263.841 197.868C263.841 197.937 263.815 198.041 263.763 198.18C262.602 200.728 261.848 203.042 261.501 205.122L261.371 205.824C261.233 206.552 261.163 207.107 261.163 207.488C261.163 207.679 261.172 207.817 261.189 207.904C261.397 208.788 261.735 209.204 262.203 209.152C262.394 209.135 262.619 208.97 262.879 208.658C263.157 208.346 263.33 208.155 263.399 208.086C264.249 207.098 265.02 206.023 265.713 204.862C266.407 203.683 267.213 202.21 268.131 200.442C268.599 199.489 269.111 198.509 269.665 197.504ZM281.34 204.862C281.531 204.377 281.626 203.9 281.626 203.432C281.626 202.461 281.228 201.69 280.43 201.118C279.65 200.529 278.714 200.234 277.622 200.234C277.189 200.234 276.764 200.286 276.348 200.39C276.279 200.858 276.218 201.239 276.166 201.534C275.698 204.654 275.256 207.479 274.84 210.01C275.482 209.698 276.218 209.291 277.05 208.788C278.125 208.129 279.035 207.505 279.78 206.916C280.526 206.309 281.046 205.625 281.34 204.862ZM276.634 198.544C277.362 198.405 278.047 198.336 278.688 198.336C280.352 198.336 281.722 198.743 282.796 199.558C283.888 200.355 284.382 201.56 284.278 203.172C284.157 205.079 283.16 206.76 281.288 208.216C279.434 209.672 277.172 210.989 274.502 212.168L274.294 213.338C274.225 213.702 273.974 214.005 273.54 214.248C273.107 214.491 272.665 214.612 272.214 214.612C271.92 214.612 271.694 214.543 271.538 214.404C271.365 214.283 271.304 214.092 271.356 213.832C271.426 213.381 271.486 213.043 271.538 212.818C271.33 212.662 271.226 212.497 271.226 212.324C271.226 212.151 271.304 211.96 271.46 211.752L271.694 211.44L271.798 211.362C272.596 206.717 273.185 203.233 273.566 200.91C273.341 200.789 273.228 200.624 273.228 200.416C273.228 200.156 273.402 199.905 273.748 199.662C274.199 196.854 274.58 194.245 274.892 191.836C274.944 191.507 275.187 191.229 275.62 191.004C276.054 190.761 276.487 190.64 276.92 190.64C277.198 190.64 277.406 190.701 277.544 190.822C277.7 190.926 277.761 191.091 277.726 191.316L276.634 198.544ZM373.453 191.602C373.557 191.359 373.817 191.151 374.233 190.978C374.649 190.787 375.039 190.692 375.403 190.692C375.888 190.692 376.131 190.848 376.131 191.16C376.131 191.281 376.113 191.377 376.079 191.446C374.935 194.306 373.938 197.253 373.089 200.286L373.791 200.26C374.363 200.243 374.649 200.364 374.649 200.624C374.649 200.867 374.441 201.144 374.025 201.456C373.626 201.768 373.253 201.941 372.907 201.976L372.621 202.028C371.875 204.905 371.26 207.982 370.775 211.258C370.723 211.587 370.463 211.873 369.995 212.116C369.527 212.359 369.067 212.48 368.617 212.48C368.374 212.48 368.183 212.428 368.045 212.324C367.906 212.22 367.845 212.073 367.863 211.882C368.313 208.658 368.937 205.512 369.735 202.444C368.053 202.756 366.372 203.172 364.691 203.692C364.292 205.564 363.876 207.904 363.443 210.712C363.391 211.041 363.131 211.327 362.663 211.57C362.195 211.813 361.735 211.934 361.285 211.934C361.025 211.934 360.825 211.882 360.687 211.778C360.548 211.674 360.496 211.518 360.531 211.31C360.895 208.866 361.293 206.587 361.727 204.472C361.38 204.385 361.207 204.195 361.207 203.9C361.207 203.727 361.276 203.553 361.415 203.38C361.571 203.207 361.787 203.051 362.065 202.912C363.001 198.891 364.153 195.259 365.523 192.018C365.627 191.775 365.887 191.567 366.303 191.394C366.719 191.203 367.117 191.108 367.499 191.108C367.984 191.108 368.227 191.264 368.227 191.576C368.227 191.697 368.209 191.793 368.175 191.862C367.013 194.826 365.991 198.128 365.107 201.768C366.753 201.231 368.469 200.832 370.255 200.572C371.191 197.331 372.257 194.341 373.453 191.602ZM378.077 208.164C378.042 208.372 378.025 208.519 378.025 208.606C378.025 209.299 378.363 209.646 379.039 209.646C379.437 209.646 379.923 209.533 380.495 209.308C381.015 209.1 381.977 208.658 383.381 207.982C383.415 207.549 383.45 207.133 383.485 206.734C383.537 206.318 383.58 205.945 383.615 205.616L383.797 203.822C382.601 204.394 381.708 204.845 381.119 205.174C380.252 205.677 379.559 206.153 379.039 206.604C378.519 207.037 378.198 207.557 378.077 208.164ZM384.837 195.918C385.617 195.918 386.137 196.117 386.397 196.516C386.674 196.897 386.813 197.461 386.813 198.206L386.787 198.934C386.717 200.199 386.561 202.054 386.319 204.498C386.267 204.845 386.206 205.425 386.137 206.24C386.067 206.743 386.007 207.15 385.955 207.462C386.145 207.566 386.241 207.705 386.241 207.878C386.241 207.999 386.18 208.181 386.059 208.424L385.955 208.554L385.799 208.71C385.677 209.594 385.617 210.348 385.617 210.972C385.859 211.111 385.981 211.275 385.981 211.466C385.981 211.761 385.764 212.073 385.331 212.402C385.209 212.489 385.071 212.575 384.915 212.662C384.793 212.731 384.62 212.792 384.395 212.844C384.187 212.896 383.979 212.922 383.771 212.922C383.129 212.922 382.835 212.688 382.887 212.22L383.095 210.036C380.772 211.145 378.987 211.7 377.739 211.7C376.161 211.7 375.373 210.851 375.373 209.152C375.373 207.523 376.213 206.136 377.895 204.992C379.593 203.848 381.621 202.817 383.979 201.898C384.048 201.222 384.1 200.537 384.135 199.844C384.135 199.705 384.143 199.532 384.161 199.324C384.178 199.116 384.187 198.882 384.187 198.622C384.187 198.293 384.161 198.076 384.109 197.972L384.031 197.868H384.005C383.745 197.868 383.259 198.223 382.549 198.934C381.907 199.558 381.11 200.494 380.157 201.742C380.018 201.933 379.784 202.089 379.455 202.21C379.143 202.331 378.822 202.392 378.493 202.392C378.25 202.392 378.042 202.349 377.869 202.262C377.713 202.175 377.635 202.045 377.635 201.872C377.635 201.733 377.704 201.551 377.843 201.326C380.235 197.721 382.566 195.918 384.837 195.918ZM398.531 196.178C399.224 196.559 399.571 197.365 399.571 198.596C399.571 199.047 399.528 199.549 399.441 200.104C399.354 200.641 399.259 201.153 399.155 201.638L398.973 202.678L397.881 210.764C398.228 210.851 398.375 211.067 398.323 211.414C398.132 212.367 397.456 212.974 396.295 213.234L396.035 213.26C395.74 213.26 395.48 213.199 395.255 213.078C395.03 212.957 394.934 212.766 394.969 212.506C395.697 207.237 396.234 203.285 396.581 200.65C396.598 200.581 396.633 200.381 396.685 200.052C396.754 199.723 396.789 199.411 396.789 199.116C396.789 198.561 396.642 198.275 396.347 198.258C396.122 198.223 395.749 198.535 395.229 199.194C394.726 199.835 394.449 200.191 394.397 200.26C393.357 201.439 392.386 202.756 391.485 204.212C391.069 206.743 390.74 208.788 390.497 210.348L390.367 211.18C390.315 211.509 390.072 211.795 389.639 212.038C389.206 212.281 388.781 212.402 388.365 212.402C388.105 212.402 387.897 212.35 387.741 212.246C387.602 212.125 387.55 211.951 387.585 211.726C388.036 209.074 388.391 206.907 388.651 205.226C388.547 205.122 388.495 205.001 388.495 204.862C388.495 204.775 388.521 204.68 388.573 204.576C388.625 204.489 388.668 204.411 388.703 204.342C388.755 204.273 388.798 204.212 388.833 204.16L389.873 197.868C389.925 197.556 390.159 197.287 390.575 197.062C390.991 196.837 391.407 196.724 391.823 196.724C392.083 196.724 392.282 196.776 392.421 196.88C392.56 196.984 392.612 197.14 392.577 197.348C392.49 197.92 392.369 198.657 392.213 199.558L393.305 198.388C394.033 197.66 394.726 197.062 395.385 196.594C396.044 196.126 396.711 195.892 397.387 195.892C397.82 195.892 398.202 195.987 398.531 196.178ZM403.384 209.802C403.713 210.062 404.138 210.192 404.658 210.192C405.265 210.192 406.036 209.993 406.972 209.594C407.527 206.387 407.96 203.233 408.272 200.13H408.22C407.284 200.13 406.426 200.451 405.646 201.092C404.866 201.733 404.216 202.531 403.696 203.484C403.193 204.437 402.847 205.382 402.656 206.318C402.569 206.751 402.526 207.176 402.526 207.592C402.526 208.615 402.812 209.351 403.384 209.802ZM408.896 191.888C408.913 191.576 409.13 191.307 409.546 191.082C409.962 190.839 410.387 190.718 410.82 190.718C411.357 190.718 411.617 190.917 411.6 191.316C411.305 197.036 410.681 202.938 409.728 209.022C410.005 209.161 410.144 209.343 410.144 209.568C410.144 209.828 409.936 210.079 409.52 210.322L409.364 211.284C409.295 211.613 409.043 211.899 408.61 212.142C408.194 212.367 407.778 212.48 407.362 212.48C407.102 212.48 406.894 212.428 406.738 212.324C406.582 212.203 406.53 212.029 406.582 211.804C406.582 211.717 406.591 211.657 406.608 211.622C405.499 211.969 404.58 212.142 403.852 212.142C403.055 212.142 402.335 211.969 401.694 211.622C401.053 211.293 400.585 210.816 400.29 210.192C399.995 209.568 399.848 208.866 399.848 208.086C399.848 207.809 399.883 207.427 399.952 206.942C400.195 205.538 400.715 204.186 401.512 202.886C402.309 201.586 403.315 200.52 404.528 199.688C405.741 198.856 407.05 198.414 408.454 198.362C408.662 195.987 408.809 193.829 408.896 191.888Z" fill="#2A69A9"/>
<path d="M296.522 209.308C297.232 208.355 297.848 207.349 298.368 206.292C298.818 205.425 299.295 204.351 299.798 203.068C300.3 201.785 300.552 200.728 300.552 199.896C300.552 199.619 300.517 199.402 300.448 199.246C299.928 199.281 299.616 199.125 299.512 198.778C299.39 198.345 299.26 198.128 299.122 198.128C299.018 198.128 298.914 198.197 298.81 198.336C298.706 198.457 298.558 198.683 298.368 199.012C298.125 199.376 297.865 199.879 297.588 200.52C297.016 201.733 296.548 202.921 296.184 204.082C295.768 205.278 295.438 206.361 295.196 207.332C294.953 208.303 294.832 209.23 294.832 210.114C294.832 210.495 294.858 210.868 294.91 211.232L295.456 210.66C295.785 210.279 296.14 209.828 296.522 209.308ZM302.008 197.036C302.528 197.244 302.9 197.539 303.126 197.92C303.351 198.301 303.464 198.787 303.464 199.376C303.464 199.931 303.325 200.884 303.048 202.236C302.285 205.807 301.661 209.065 301.176 212.012C300.708 214.959 300.37 217.871 300.162 220.748C300.144 220.991 300.11 221.199 300.058 221.372C300.023 221.563 299.945 221.788 299.824 222.048C299.633 222.429 299.33 222.767 298.914 223.062C298.515 223.374 298.134 223.53 297.77 223.53C297.44 223.53 297.189 223.383 297.016 223.088L296.262 221.788C295.17 219.881 294.242 218.321 293.48 217.108C293.428 217.039 293.402 216.952 293.402 216.848C293.402 216.553 293.618 216.276 294.052 216.016C294.485 215.756 294.927 215.626 295.378 215.626C295.828 215.626 296.14 215.773 296.314 216.068C296.556 216.519 296.834 217.004 297.146 217.524L297.666 218.434C298.047 215.366 298.472 212.471 298.94 209.75C298.142 210.859 297.302 211.813 296.418 212.61C295.551 213.407 294.745 213.806 294 213.806C293.428 213.806 292.934 213.546 292.518 213.026C292.171 212.593 291.998 211.969 291.998 211.154C291.998 210.703 292.032 210.261 292.102 209.828C292.188 209.395 292.318 208.805 292.492 208.06L292.648 207.436C293.168 205.079 293.939 202.782 294.962 200.546C295.447 199.523 295.932 198.674 296.418 197.998C296.92 197.322 297.553 196.811 298.316 196.464C298.784 196.239 299.304 196.126 299.876 196.126C300.725 196.126 301.375 196.412 301.826 196.984L302.008 197.036ZM310.645 198.05C309.761 198.726 309.042 199.818 308.487 201.326C310.186 200.685 311.72 200.147 313.089 199.714C312.517 198.917 311.936 198.379 311.347 198.102C311.226 198.05 311.104 198.015 310.983 197.998C310.879 197.981 310.818 197.972 310.801 197.972C310.818 197.989 310.801 198.007 310.749 198.024C310.714 198.041 310.68 198.05 310.645 198.05ZM310.749 196.204C311.026 196.135 311.321 196.1 311.633 196.1C313.297 196.1 314.805 197.218 316.157 199.454C316.209 199.523 316.235 199.61 316.235 199.714C316.235 199.905 316.114 200.104 315.871 200.312C315.68 200.52 315.438 200.685 315.143 200.806C313.41 201.569 311 202.479 307.915 203.536C307.742 204.42 307.655 205.33 307.655 206.266C307.655 206.699 307.664 207.011 307.681 207.202C307.716 207.982 307.872 208.658 308.149 209.23C308.236 209.421 308.357 209.603 308.513 209.776C308.686 209.949 308.816 210.062 308.903 210.114C308.955 210.149 309.042 210.166 309.163 210.166C309.284 210.166 309.423 210.131 309.579 210.062C309.752 209.993 309.943 209.897 310.151 209.776C310.654 209.481 311.122 209.143 311.555 208.762C311.988 208.381 312.508 207.887 313.115 207.28C313.358 207.037 313.765 206.916 314.337 206.916C314.649 206.916 314.909 206.968 315.117 207.072C315.342 207.159 315.455 207.289 315.455 207.462C315.455 207.618 315.368 207.791 315.195 207.982C314.12 209.143 313.02 210.131 311.893 210.946C310.766 211.761 309.64 212.168 308.513 212.168C307.976 212.168 307.473 212.055 307.005 211.83C306.225 211.466 305.662 210.885 305.315 210.088C304.968 209.291 304.795 208.355 304.795 207.28C304.795 206.483 304.899 205.547 305.107 204.472L304.899 204.524L304.691 204.602C304.431 204.689 304.223 204.732 304.067 204.732C303.824 204.732 303.634 204.671 303.495 204.55C303.356 204.429 303.287 204.273 303.287 204.082C303.287 203.857 303.374 203.64 303.547 203.432C303.738 203.207 304.015 203.025 304.379 202.886L305.653 202.392C305.809 201.907 306.043 201.274 306.355 200.494C306.84 199.419 307.447 198.492 308.175 197.712C308.903 196.932 309.761 196.429 310.749 196.204ZM320.973 209.308C321.684 208.355 322.299 207.349 322.819 206.292C323.27 205.425 323.746 204.351 324.249 203.068C324.752 201.785 325.003 200.728 325.003 199.896C325.003 199.619 324.968 199.402 324.899 199.246C324.379 199.281 324.067 199.125 323.963 198.778C323.842 198.345 323.712 198.128 323.573 198.128C323.469 198.128 323.365 198.197 323.261 198.336C323.157 198.457 323.01 198.683 322.819 199.012C322.576 199.376 322.316 199.879 322.039 200.52C321.467 201.733 320.999 202.921 320.635 204.082C320.219 205.278 319.89 206.361 319.647 207.332C319.404 208.303 319.283 209.23 319.283 210.114C319.283 210.495 319.309 210.868 319.361 211.232L319.907 210.66C320.236 210.279 320.592 209.828 320.973 209.308ZM326.459 197.036C326.979 197.244 327.352 197.539 327.577 197.92C327.802 198.301 327.915 198.787 327.915 199.376C327.915 199.931 327.776 200.884 327.499 202.236C326.736 205.807 326.112 209.065 325.627 212.012C325.159 214.959 324.821 217.871 324.613 220.748C324.596 220.991 324.561 221.199 324.509 221.372C324.474 221.563 324.396 221.788 324.275 222.048C324.084 222.429 323.781 222.767 323.365 223.062C322.966 223.374 322.585 223.53 322.221 223.53C321.892 223.53 321.64 223.383 321.467 223.088L320.713 221.788C319.621 219.881 318.694 218.321 317.931 217.108C317.879 217.039 317.853 216.952 317.853 216.848C317.853 216.553 318.07 216.276 318.503 216.016C318.936 215.756 319.378 215.626 319.829 215.626C320.28 215.626 320.592 215.773 320.765 216.068C321.008 216.519 321.285 217.004 321.597 217.524L322.117 218.434C322.498 215.366 322.923 212.471 323.391 209.75C322.594 210.859 321.753 211.813 320.869 212.61C320.002 213.407 319.196 213.806 318.451 213.806C317.879 213.806 317.385 213.546 316.969 213.026C316.622 212.593 316.449 211.969 316.449 211.154C316.449 210.703 316.484 210.261 316.553 209.828C316.64 209.395 316.77 208.805 316.943 208.06L317.099 207.436C317.619 205.079 318.39 202.782 319.413 200.546C319.898 199.523 320.384 198.674 320.869 197.998C321.372 197.322 322.004 196.811 322.767 196.464C323.235 196.239 323.755 196.126 324.327 196.126C325.176 196.126 325.826 196.412 326.277 196.984L326.459 197.036ZM335.096 198.05C334.212 198.726 333.493 199.818 332.938 201.326C334.637 200.685 336.171 200.147 337.54 199.714C336.968 198.917 336.387 198.379 335.798 198.102C335.677 198.05 335.555 198.015 335.434 197.998C335.33 197.981 335.269 197.972 335.252 197.972C335.269 197.989 335.252 198.007 335.2 198.024C335.165 198.041 335.131 198.05 335.096 198.05ZM335.2 196.204C335.477 196.135 335.772 196.1 336.084 196.1C337.748 196.1 339.256 197.218 340.608 199.454C340.66 199.523 340.686 199.61 340.686 199.714C340.686 199.905 340.565 200.104 340.322 200.312C340.131 200.52 339.889 200.685 339.594 200.806C337.861 201.569 335.451 202.479 332.366 203.536C332.193 204.42 332.106 205.33 332.106 206.266C332.106 206.699 332.115 207.011 332.132 207.202C332.167 207.982 332.323 208.658 332.6 209.23C332.687 209.421 332.808 209.603 332.964 209.776C333.137 209.949 333.267 210.062 333.354 210.114C333.406 210.149 333.493 210.166 333.614 210.166C333.735 210.166 333.874 210.131 334.03 210.062C334.203 209.993 334.394 209.897 334.602 209.776C335.105 209.481 335.573 209.143 336.006 208.762C336.439 208.381 336.959 207.887 337.566 207.28C337.809 207.037 338.216 206.916 338.788 206.916C339.1 206.916 339.36 206.968 339.568 207.072C339.793 207.159 339.906 207.289 339.906 207.462C339.906 207.618 339.819 207.791 339.646 207.982C338.571 209.143 337.471 210.131 336.344 210.946C335.217 211.761 334.091 212.168 332.964 212.168C332.427 212.168 331.924 212.055 331.456 211.83C330.676 211.466 330.113 210.885 329.766 210.088C329.419 209.291 329.246 208.355 329.246 207.28C329.246 206.483 329.35 205.547 329.558 204.472L329.35 204.524L329.142 204.602C328.882 204.689 328.674 204.732 328.518 204.732C328.275 204.732 328.085 204.671 327.946 204.55C327.807 204.429 327.738 204.273 327.738 204.082C327.738 203.857 327.825 203.64 327.998 203.432C328.189 203.207 328.466 203.025 328.83 202.886L330.104 202.392C330.26 201.907 330.494 201.274 330.806 200.494C331.291 199.419 331.898 198.492 332.626 197.712C333.354 196.932 334.212 196.429 335.2 196.204ZM351.482 196.178C352.175 196.559 352.522 197.365 352.522 198.596C352.522 199.047 352.479 199.549 352.392 200.104C352.305 200.641 352.21 201.153 352.106 201.638L351.924 202.678L350.832 210.764C351.179 210.851 351.326 211.067 351.274 211.414C351.083 212.367 350.407 212.974 349.246 213.234L348.986 213.26C348.691 213.26 348.431 213.199 348.206 213.078C347.981 212.957 347.885 212.766 347.92 212.506C348.648 207.237 349.185 203.285 349.532 200.65C349.549 200.581 349.584 200.381 349.636 200.052C349.705 199.723 349.74 199.411 349.74 199.116C349.74 198.561 349.593 198.275 349.298 198.258C349.073 198.223 348.7 198.535 348.18 199.194C347.677 199.835 347.4 200.191 347.348 200.26C346.308 201.439 345.337 202.756 344.436 204.212C344.02 206.743 343.691 208.788 343.448 210.348L343.318 211.18C343.266 211.509 343.023 211.795 342.59 212.038C342.157 212.281 341.732 212.402 341.316 212.402C341.056 212.402 340.848 212.35 340.692 212.246C340.553 212.125 340.501 211.951 340.536 211.726C340.987 209.074 341.342 206.907 341.602 205.226C341.498 205.122 341.446 205.001 341.446 204.862C341.446 204.775 341.472 204.68 341.524 204.576C341.576 204.489 341.619 204.411 341.654 204.342C341.706 204.273 341.749 204.212 341.784 204.16L342.824 197.868C342.876 197.556 343.11 197.287 343.526 197.062C343.942 196.837 344.358 196.724 344.774 196.724C345.034 196.724 345.233 196.776 345.372 196.88C345.511 196.984 345.563 197.14 345.528 197.348C345.441 197.92 345.32 198.657 345.164 199.558L346.256 198.388C346.984 197.66 347.677 197.062 348.336 196.594C348.995 196.126 349.662 195.892 350.338 195.892C350.771 195.892 351.153 195.987 351.482 196.178Z" fill="#F6A716"/>
<path d="M152.954 121.503C153.595 118.78 155.223 115.869 157.818 115.43C160.132 115.041 162.208 116.782 163.686 118.648C165.164 120.514 166.472 122.692 168.576 123.693C170.012 124.365 171.651 124.403 173.193 124.79C174.737 125.169 176.326 126.063 176.778 127.674C177.295 129.502 176.147 131.425 174.924 132.884C172.268 136.054 168.655 137.814 164.988 139.411C162.027 140.712 149.385 139.573 150.878 129.593C151.288 126.83 152.305 124.222 152.954 121.503ZM159.661 126.961C159.784 128.245 159.326 129.466 159.469 130.737C159.559 131.551 160.064 132.419 160.925 132.684C161.661 132.907 162.445 132.622 163.062 132.233C163.671 131.842 164.206 131.335 164.88 131.039C165.4 130.807 165.991 130.706 166.477 130.422C166.962 130.138 167.326 129.571 167.074 129.071C166.05 128.713 165.028 128.347 164.004 127.988C162.612 127.492 162.204 123.38 159.995 124.491C158.919 125.032 159.577 126.061 159.661 126.961Z" fill="#2A69A9"/>
<path d="M179.633 122.281C179.633 122.281 185.139 116.944 188.403 115.21C189.316 114.725 190.347 114.297 191.312 114.568C192.277 114.838 192.99 116.12 192.414 117.021C191.966 117.722 189.792 118.541 189.099 118.955C185.724 120.969 184.595 123.18 181.225 124.907C180.6 125.228 179.827 125.446 179.265 125.052C178.703 124.656 178.435 123.499 179.633 122.281Z" fill="#2A69A9"/>
<path d="M172.426 116.418C173.102 115.523 174.025 114.887 174.876 114.182C178.841 110.905 180.419 108.057 184.276 104.006C185.832 102.372 187.944 102.866 187.45 104.786C186.449 108.678 183.594 110.769 180.399 113.703C179.053 114.94 173.228 123.268 171.764 119.586C171.357 118.559 171.75 117.312 172.426 116.418Z" fill="#2A69A9"/>
<path d="M171.417 104.11C172.612 102.311 174.696 98.5124 175.89 96.7146C176.381 95.9751 176.897 95.2105 177.633 94.7577C178.368 94.3048 179.39 94.2623 179.949 94.9053C182.199 97.4927 171.637 112.086 169.486 113.85C163.137 119.055 169.746 106.624 171.417 104.11Z" fill="#2A69A9"/>
<path d="M161.702 109.514C163.416 103.721 165.065 98.7435 167.498 93.227C168.445 91.5046 170.162 92.9876 170.38 93.8436C170.599 94.6995 170.345 95.6205 170.092 96.4831C169.643 98.0176 164.527 116.766 162.16 111.924C161.829 111.247 161.482 110.261 161.702 109.514Z" fill="#2A69A9"/>
<path d="M145.624 106.52C145.763 106.369 145.915 106.225 146.097 106.146C146.75 105.86 147.386 106.493 147.791 107.081C150.062 110.372 150.698 112.592 151.351 116.661C151.351 116.661 151.816 119.44 150.137 120.605C147.421 122.489 145.719 118.374 145.313 117.201C144.707 115.451 144.104 113.667 144 111.788C143.897 109.909 144.36 107.889 145.624 106.52Z" fill="#2A69A9"/>
<path d="M207.362 154.468C200.934 156.767 198.784 144.611 199.316 141.629C199.966 137.938 200.729 134.287 202.529 131.441C203.358 130.131 204.502 128.854 205.766 129.199C206.881 129.499 207.647 130.964 208.068 132.428C208.494 133.889 208.7 135.475 209.303 136.81C210.197 138.764 211.781 139.846 213.177 141.119C214.573 142.391 215.952 144.255 215.951 146.531C215.948 149.084 214.204 150.91 212.478 151.764C210.753 152.626 209.143 153.834 207.362 154.468ZM209.725 145.194C210.215 142.958 207.453 142.914 206.972 141.606C206.622 140.645 206.267 139.686 205.917 138.724C205.559 138.522 205.225 138.923 205.091 139.418C204.957 139.913 204.956 140.494 204.86 141.018C204.739 141.698 204.464 142.258 204.272 142.882C204.084 143.514 203.981 144.299 204.21 144.992C204.48 145.805 205.11 146.22 205.658 146.238C206.513 146.268 207.269 145.719 208.131 145.728C208.734 145.734 209.487 146.284 209.725 145.194Z" fill="#419D78"/>
<path d="M209.257 126.848C209.257 126.848 212.174 121.055 212.959 117.743C213.179 116.816 213.347 115.78 213.062 114.868C212.777 113.956 211.851 113.374 211.319 114.009C210.905 114.503 210.605 116.681 210.408 117.388C209.45 120.831 208.115 122.114 207.346 125.528C207.204 126.161 207.145 126.929 207.468 127.441C207.791 127.952 208.585 128.113 209.257 126.848Z" fill="#419D78"/>
<path d="M213.684 132.456C214.201 131.724 214.519 130.776 214.89 129.89C216.617 125.767 218.324 123.994 220.573 119.91C221.481 118.262 220.921 116.257 219.707 116.9C217.247 118.203 216.181 121.147 214.596 124.495C213.928 125.906 209.069 132.263 211.664 133.367C212.388 133.675 213.168 133.188 213.684 132.456Z" fill="#419D78"/>
<path d="M221.927 132.383C222.983 131.072 225.263 128.727 226.319 127.416C226.753 126.877 227.201 126.311 227.419 125.559C227.636 124.808 227.551 123.814 227.066 123.327C225.108 121.366 216.634 132.85 215.706 135.086C212.969 141.685 220.451 134.217 221.927 132.383Z" fill="#419D78"/>
<path d="M219.475 144.168C223.112 142.012 226.218 139.989 229.594 137.16C230.627 136.095 229.457 134.557 228.867 134.418C228.278 134.279 227.698 134.604 227.155 134.923C226.191 135.489 214.371 142.049 217.831 143.929C218.316 144.193 219.006 144.446 219.475 144.168Z" fill="#419D78"/>
<path d="M222.74 157.647C222.824 157.5 222.903 157.34 222.936 157.156C223.052 156.5 222.564 155.937 222.13 155.594C219.706 153.675 218.168 153.247 215.408 152.962C215.408 152.962 213.52 152.748 212.936 154.476C211.992 157.269 214.898 158.567 215.718 158.86C216.941 159.298 218.186 159.731 219.439 159.671C220.692 159.611 221.976 158.989 222.74 157.647Z" fill="#419D78"/>
</svg>
